Coordinates
version=1
nRows=11
nColumns=50
inDegrees=no

Units are S.I. units (second, meters, Newtons, ...)
If the header above contains a line with 'inDegrees', this indicates whether rotational values are in degrees (yes) or radians (no).

endheader
time	pelvis_tilt	pelvis_list	pelvis_rotation	pelvis_tx	pelvis_ty	pelvis_tz	hip_flexion_r	hip_adduction_r	hip_rotation_r	knee_angle_r	ankle_angle_r	subtalar_angle_r	mtp_angle_r	hip_flexion_l	hip_adduction_l	hip_rotation_l	knee_angle_l	ankle_angle_l	subtalar_angle_l	mtp_angle_l	lumbar_bending	lumbar_extension	lumbar_twist	thorax_bending	thorax_extension	thorax_twist	head_bending	head_extension	head_twist	scapula_abduction_r	scapula_elevation_r	scapula_upward_rot_r	shoulder_r_x	shoulder_r_y	shoulder_r_z	elbow_flexion_r	pro_sup_r	wrist_flexion_r	wrist_deviation_r	scapula_abduction_l	scapula_elevation_l	scapula_upward_rot_l	shoulder_l_x	shoulder_l_y	shoulder_l_z	elbow_flexion_l	pro_sup_l	wrist_flexion_l	wrist_deviation_l
0	-0.345717	0.0455989	-0.0711426	-5.85054	0.974145	0.190043	-0.371569	-0.107475	-0.39621	0.212333	-0.473514	0.349066	0.0841973	1.62755	-0.144229	-0.0599053	1.86782	0.0214359	-0.252368	0.0486336	-0.0832761	0.113812	0.0129054	-0.169783	-0.131858	0.331308	0	0	0	-0.969601	-0.170609	1	0.101474	-0.370048	0.196042	1.76581	0.133015	0	0.0835765	-0.988546	0.0752536	0.513836	0.139758	-0.0754421	-1.40822	0.888772	-0.177038	0	0.0835765
0.004	-0.33907	0.0546715	-0.0731	-5.8107	0.974548	0.189233	-0.41302	-0.123318	-0.395665	0.193341	-0.542206	0.349066	-0.0235958	1.62243	-0.138992	-0.067221	1.80135	0.0189874	-0.229083	0.0464183	-0.0802911	0.114355	0.0326134	-0.187918	-0.133727	0.335809	0	0	0	-0.980799	-0.178462	1	0.105535	-0.378268	0.21269	1.80162	0.154663	0	0.0835765	-1.00375	0.0931324	0.514544	0.191901	-0.0705171	-1.41071	0.881199	-0.147383	0	0.0835765
0.008	-0.345158	0.045821	-0.050917	-5.77298	0.974871	0.188683	-0.432648	-0.10922	-0.40557	0.206273	-0.525987	0.349066	0.00625284	1.62784	-0.115699	-0.0581769	1.71785	0.0403545	-0.179342	0.0448289	-0.0750536	0.122497	0.027029	-0.196757	-0.139775	0.326664	0	0	0	-0.997269	-0.1884	1	0.113638	-0.374536	0.241267	1.83209	0.183794	0	0.0835765	-1.0033	0.0976599	0.525293	0.247665	-0.0512511	-1.43478	0.890377	-0.226021	0	0.0835765
0.012	-0.332818	0.0537015	-0.0552473	-5.73396	0.975884	0.186749	-0.459182	-0.129437	-0.405424	0.242605	-0.512703	0.308313	0.00690194	1.60529	-0.111144	-0.0653252	1.64013	0.0577985	-0.146838	0.0496363	-0.0621663	0.109543	0.0447178	-0.224868	-0.140211	0.332542	0	0	0	-1.00692	-0.197938	1	0.122624	-0.380374	0.263218	1.86499	0.174895	0	0.0835765	-0.998091	0.0999889	0.54099	0.279085	-0.0279108	-1.46713	0.912985	-0.151251	0	0.0835765
0.016	-0.33863	0.0466878	-0.042082	-5.6976	0.976595	0.186844	-0.458139	-0.122372	-0.394674	0.298098	-0.470368	0.237796	0.09587	1.59691	-0.0996468	-0.0591132	1.55143	0.0627597	-0.118201	0.0481039	-0.05955	0.111672	0.039132	-0.230148	-0.142783	0.324677	0	0	0	-1.00857	-0.2	1	0.126894	-0.384903	0.274775	1.90189	0.191985	0	0.0835765	-0.984178	0.094633	0.556093	0.321766	-0.000775971	-1.50554	0.923621	-0.179817	0	0.0835765
0.02	-0.330413	0.0398593	-0.0369315	-5.66028	0.97745	0.186287	-0.467718	-0.122117	-0.380674	0.362738	-0.433458	0.178655	0.098252	1.57057	-0.0936397	-0.0535851	1.46703	0.0767042	-0.087601	0.0456326	-0.0461473	0.0974923	0.0656445	-0.2233	-0.14654	0.293861	0	0	0	-1.01125	-0.2	1	0.124914	-0.39186	0.28607	1.94184	0.196667	0	0.0835765	-0.993237	0.0902867	0.546494	0.354875	-0.00569357	-1.51432	0.92557	-0.184185	0	0.0835765
0.024	-0.326533	0.0521678	-0.0200433	-5.62333	0.979126	0.183799	-0.470045	-0.141394	-0.395794	0.440345	-0.391668	0.140429	0.0791468	1.53837	-0.0689309	-0.0655652	1.36845	0.0855611	-0.0589443	0.0423456	-0.0764276	0.0871745	0.072657	-0.187134	-0.155686	0.238932	0	0	0	-1.00596	-0.2	1	0.120418	-0.388168	0.283469	1.98344	0.273542	0	0.0835765	-0.996876	0.0862941	0.545706	0.410423	0.0135942	-1.50783	0.893213	-0.258648	0	0.0835765
0.028	-0.322284	0.0699866	-0.00116386	-5.58655	0.981079	0.181023	-0.472123	-0.167021	-0.417061	0.521495	-0.363725	0.108021	0.0757323	1.50043	-0.0386743	-0.0792833	1.26422	0.0906515	-0.0272927	0.0405577	-0.11972	0.0736392	0.00835306	-0.202323	-0.150707	0.265591	0	0	0	-0.999122	-0.2	1	0.121644	-0.397391	0.278281	2.02633	0.264014	0	0.0835765	-1.00148	0.0827919	0.541264	0.449666	0.0323795	-1.49837	0.871567	-0.272859	0	0.0835765
0.032	-0.315597	0.0872241	0.0146325	-5.5497	0.98306	0.178705	-0.474958	-0.194107	-0.432927	0.606487	-0.346649	0.083302	0.0794188	1.45757	-0.011773	-0.0911926	1.16063	0.092964	0.00895438	0.0376468	-0.163068	0.053513	0.0041429	-0.154901	-0.151662	0.209525	0	0	0	-0.992407	-0.189098	1	0.12624	-0.408294	0.269959	2.06868	0.230299	0	0.0835765	-0.966052	0.0707469	0.55886	0.298571	0.0120149	-1.50537	0.807178	-0.250889	0	0.0835765
0.036	-0.305828	0.0981212	0.0296993	-5.51242	0.98537	0.176567	-0.478875	-0.21614	-0.440007	0.69919	-0.314501	0.0806615	0.0280492	1.41036	0.012512	-0.0974265	1.06178	0.0924231	0.0450589	0.0361376	-0.19242	0.0311454	-0.0223059	-0.139979	-0.149368	0.196324	0	0	0	-0.992183	-0.176884	1	0.125628	-0.401224	0.258593	2.10611	0.272932	0	0.0835765	-1.00178	0.072407	0.536937	0.492035	0.0747035	-1.49244	0.856614	-0.270976	0	0.0835765
0.04	-0.3009	0.104863	0.0288501	-5.47635	0.987109	0.175678	-0.461853	-0.242239	-0.41749	0.816687	-0.276498	0.0907564	-0.021985	1.36886	0.0188259	-0.103035	0.968825	0.0873522	0.0800618	0.0344905	-0.207035	0.0164059	-0.0326836	-0.129106	-0.147604	0.195579	0	0	0	-0.993063	-0.162172	1	0.127732	-0.408702	0.238646	2.14213	0.230545	0	0.0835765	-1.00651	0.0666034	0.523117	0.482685	0.0797429	-1.47549	0.868429	-0.248589	0	0.0835765
